<?xml version="1.0" encoding="UTF-8"?>
<svg xmlns="http://www.w3.org/2000/svg" xmlns:xlink="http://www.w3.org/1999/xlink" width="12pt" height="12pt" viewBox="0 0 12 12" version="1.1">
<g id="surface1">
<path style=" stroke:none;fill-rule:nonzero;fill:rgb(19.607843%,19.607843%,19.607843%);fill-opacity:1;" d="M 5.625 1.125 L 5.625 4.875 C 5.625 5.113281 5.554688 5.328125 5.417969 5.523438 C 5.277344 5.71875 5.097656 5.859375 4.875 5.9375 L 4.875 10.5 C 4.875 10.703125 4.800781 10.878906 4.652344 11.027344 C 4.503906 11.175781 4.328125 11.25 4.125 11.25 L 3.375 11.25 C 3.171875 11.25 2.996094 11.175781 2.847656 11.027344 C 2.699219 10.878906 2.625 10.703125 2.625 10.5 L 2.625 5.9375 C 2.402344 5.859375 2.222656 5.71875 2.082031 5.523438 C 1.945312 5.328125 1.875 5.113281 1.875 4.875 L 1.875 1.125 C 1.875 1.023438 1.914062 0.9375 1.984375 0.859375 C 2.0625 0.789062 2.148438 0.75 2.25 0.75 C 2.351562 0.75 2.4375 0.789062 2.515625 0.859375 C 2.585938 0.9375 2.625 1.023438 2.625 1.125 L 2.625 3.5625 C 2.625 3.664062 2.664062 3.75 2.734375 3.828125 C 2.8125 3.898438 2.898438 3.9375 3 3.9375 C 3.101562 3.9375 3.1875 3.898438 3.265625 3.828125 C 3.335938 3.75 3.375 3.664062 3.375 3.5625 L 3.375 1.125 C 3.375 1.023438 3.414062 0.9375 3.484375 0.859375 C 3.5625 0.789062 3.648438 0.75 3.75 0.75 C 3.851562 0.75 3.9375 0.789062 4.015625 0.859375 C 4.085938 0.9375 4.125 1.023438 4.125 1.125 L 4.125 3.5625 C 4.125 3.664062 4.164062 3.75 4.234375 3.828125 C 4.3125 3.898438 4.398438 3.9375 4.5 3.9375 C 4.601562 3.9375 4.6875 3.898438 4.765625 3.828125 C 4.835938 3.75 4.875 3.664062 4.875 3.5625 L 4.875 1.125 C 4.875 1.023438 4.914062 0.9375 4.984375 0.859375 C 5.0625 0.789062 5.148438 0.75 5.25 0.75 C 5.351562 0.75 5.4375 0.789062 5.515625 0.859375 C 5.585938 0.9375 5.625 1.023438 5.625 1.125 Z M 10.125 1.125 L 10.125 10.5 C 10.125 10.703125 10.050781 10.878906 9.902344 11.027344 C 9.753906 11.175781 9.578125 11.25 9.375 11.25 L 8.625 11.25 C 8.421875 11.25 8.246094 11.175781 8.097656 11.027344 C 7.949219 10.878906 7.875 10.703125 7.875 10.5 L 7.875 7.5 L 6.5625 7.5 C 6.511719 7.5 6.46875 7.480469 6.429688 7.445312 C 6.394531 7.40625 6.375 7.363281 6.375 7.3125 L 6.375 2.625 C 6.375 2.109375 6.558594 1.667969 6.925781 1.300781 C 7.292969 0.933594 7.734375 0.75 8.25 0.75 L 9.75 0.75 C 9.851562 0.75 9.9375 0.789062 10.015625 0.859375 C 10.085938 0.9375 10.125 1.023438 10.125 1.125 Z M 10.125 1.125 "/>
</g>
</svg>
